<?xml version="1.0" standalone="no"?>
<!DOCTYPE svg PUBLIC "-//W3C//DTD SVG 20010904//EN"
 "http://www.w3.org/TR/2001/REC-SVG-20010904/DTD/svg10.dtd">
<svg version="1.0" xmlns="http://www.w3.org/2000/svg"
 width="1920.000000pt" height="1080.000000pt" viewBox="0 0 1920.000000 1080.000000"
 preserveAspectRatio="xMidYMid meet">
<metadata>
Created by potrace 1.14, written by Peter Selinger 2001-2017
</metadata>
<g transform="translate(0.000000,1080.000000) scale(0.100000,-0.100000)"
fill="#ffffff" stroke="none">
<path d="M8618 7900 c-143 -24 -271 -85 -366 -174 -70 -66 -92 -100 -92 -145
0 -24 8 -34 43 -54 67 -40 144 -128 185 -214 l37 -78 6 -1345 c5 -1227 7
-1351 22 -1409 63 -234 231 -345 497 -328 138 9 254 61 350 157 l40 40 0 -728
c0 -400 3 -737 6 -749 6 -22 10 -23 140 -23 l134 0 0 1370 0 1370 -135 0 -135
0 0 -477 0 -478 -29 -50 c-40 -69 -119 -140 -199 -178 -60 -29 -76 -32 -157
-32 -127 1 -190 36 -232 130 -17 38 -18 118 -24 1360 -4 1023 -8 1331 -18
1370 -33 127 -129 269 -221 327 -22 14 -23 17 -10 32 22 28 107 66 179 82 123
26 294 13 425 -32 39 -14 75 -26 80 -27 8 -2 44 154 45 199 1 18 -12 25 -86
47 -49 15 -119 31 -158 37 -81 11 -259 11 -327 0z"/>
<path d="M11680 7150 l0 -80 -275 0 -275 0 0 -80 0 -80 370 0 370 0 0 160 0
160 -95 0 -95 0 0 -80z"/>
<path d="M9222 6805 c-93 -26 -150 -66 -190 -134 -22 -38 -27 -58 -26 -111 1
-138 87 -221 299 -290 93 -30 160 -65 179 -92 23 -33 20 -75 -8 -103 -65 -65
-229 -58 -406 19 -13 5 -20 -9 -38 -69 -12 -41 -22 -79 -22 -84 0 -13 95 -49
175 -66 187 -39 389 1 465 93 47 56 66 132 52 210 -21 123 -86 181 -292 258
-69 25 -140 55 -158 66 -52 32 -57 86 -9 122 25 18 42 21 135 20 89 -1 118 -5
177 -27 38 -14 70 -25 71 -24 0 1 13 34 28 72 31 83 34 80 -87 120 -103 34
-262 43 -345 20z"/>
<path d="M10177 6806 c-26 -7 -50 -15 -52 -18 -5 -4 22 -148 28 -154 1 -1 25
3 52 9 94 19 157 -8 197 -86 30 -58 38 -238 14 -318 -29 -103 -110 -189 -176
-189 -25 0 -28 10 -114 298 -49 163 -100 332 -113 375 l-24 77 -104 0 c-58 0
-105 -1 -105 -2 0 -2 62 -208 138 -458 l137 -455 135 0 c166 1 220 19 309 100
105 98 159 257 147 432 -18 253 -154 405 -360 402 -34 0 -82 -6 -109 -13z"/>
<path d="M11422 6805 c-93 -26 -150 -66 -190 -134 -22 -38 -27 -58 -26 -111 1
-138 87 -221 299 -290 93 -30 160 -65 179 -92 23 -33 20 -75 -8 -103 -65 -65
-229 -58 -406 19 -13 5 -20 -9 -38 -69 -12 -41 -22 -79 -22 -84 0 -13 95 -49
175 -66 187 -39 389 1 465 93 47 56 66 132 52 210 -21 123 -86 181 -292 258
-69 25 -140 55 -158 66 -52 32 -57 86 -9 122 25 18 42 21 135 20 89 -1 118 -5
177 -27 38 -14 70 -25 71 -24 0 1 13 34 28 72 31 83 34 80 -87 120 -103 34
-262 43 -345 20z"/>
<path d="M12192 6791 c-101 -35 -146 -104 -140 -211 4 -82 36 -137 104 -179
42 -27 43 -29 20 -35 -36 -9 -84 -53 -108 -99 -17 -34 -20 -54 -16 -123 4 -70
9 -90 34 -131 59 -95 150 -140 304 -150 217 -14 376 60 444 206 20 44 21 63
24 389 l3 342 -105 0 -106 0 0 -297 c0 -187 -4 -313 -11 -338 -30 -109 -180
-168 -295 -116 -60 27 -84 63 -84 125 0 92 47 126 175 126 l76 0 -5 33 c-3 17
-8 53 -11 80 l-6 47 -75 0 c-81 0 -122 14 -148 52 -23 32 -20 63 8 95 21 25
31 28 83 28 32 0 70 -3 84 -7 26 -8 26 -7 36 70 5 42 9 79 7 81 -2 2 -29 10
-61 17 -80 19 -168 17 -231 -5z"/>
<path d="M10820 6340 l0 -460 110 0 110 0 0 460 0 460 -110 0 -110 0 0 -460z"/>
<path d="M13082 6433 c3 -349 4 -370 24 -413 27 -58 77 -108 134 -134 35 -16
66 -20 140 -21 87 0 101 3 160 32 36 18 79 46 95 63 l30 31 10 -53 10 -53 98
-3 97 -3 0 461 0 460 -110 0 -110 0 0 -320 0 -320 -37 -42 c-72 -79 -175 -107
-259 -69 -71 32 -74 49 -74 426 l0 325 -105 0 -106 0 3 -367z"/>
<path d="M6420 5995 l0 -225 130 0 130 0 0 225 0 225 -130 0 -130 0 0 -225z"/>
<path d="M5913 5599 c-216 -36 -378 -173 -444 -374 -22 -68 -23 -83 -27 -557
l-4 -488 141 0 141 0 0 178 0 177 30 52 c54 94 122 123 292 123 l108 0 0 115
0 115 -108 0 c-149 0 -201 -17 -270 -85 l-54 -54 4 182 c4 209 13 242 91 320
61 62 124 82 253 82 96 0 105 -2 170 -35 53 -27 76 -46 101 -84 62 -92 63
-101 63 -618 l0 -468 135 0 135 0 0 483 c0 532 -1 545 -63 661 -94 178 -308
288 -554 285 -48 -1 -111 -5 -140 -10z"/>
<path d="M10170 5595 c-85 -18 -159 -44 -245 -88 -118 -60 -113 -49 -75 -158
19 -52 35 -96 36 -97 1 -2 33 14 71 37 113 66 211 95 328 95 89 1 105 -2 144
-24 24 -14 57 -41 72 -60 56 -69 59 -107 59 -637 l0 -483 135 0 135 0 0 493
c0 541 -4 579 -60 693 -36 74 -115 155 -184 189 -106 52 -277 68 -416 40z"/>
<path d="M7010 5481 l0 -111 94 0 c116 0 126 -7 126 -90 0 -63 -16 -92 -136
-245 -96 -123 -99 -134 -99 -330 0 -153 2 -177 24 -244 66 -200 215 -296 476
-308 265 -12 436 62 523 226 60 111 62 134 62 699 l0 512 -135 0 -134 0 -3
-522 c-3 -484 -4 -526 -22 -565 -40 -93 -139 -140 -276 -130 -139 9 -213 68
-239 188 -14 66 -14 252 0 300 7 21 45 82 86 136 120 158 127 172 131 280 7
156 -28 242 -117 285 -41 20 -64 23 -203 26 l-158 4 0 -111z"/>
<path d="M11183 5068 c5 -576 7 -593 69 -710 78 -148 234 -219 448 -205 141 9
258 62 355 163 l42 43 13 -89 12 -90 124 0 124 0 0 705 0 705 -135 0 -135 0 0
-477 0 -478 -29 -50 c-40 -69 -119 -140 -199 -178 -60 -29 -76 -32 -157 -32
-102 1 -152 20 -198 75 -55 65 -57 89 -57 637 l0 503 -141 0 -141 0 5 -522z"/>
<path d="M5830 3910 l0 -100 75 0 75 0 0 -67 c0 -50 6 -81 24 -118 29 -62 55
-86 131 -122 55 -25 70 -28 180 -28 135 0 181 10 252 58 35 23 56 47 77 90 27
55 29 66 34 222 l5 165 -127 0 -126 0 0 -139 c0 -77 -4 -151 -10 -165 -23 -60
-133 -73 -177 -21 -22 25 -23 35 -23 176 l0 149 -195 0 -195 0 0 -100z"/>
</g>
</svg>
